<?xml version="1.0" standalone="no"?>
<!DOCTYPE svg PUBLIC "-//W3C//DTD SVG 20010904//EN"
 "http://www.w3.org/TR/2001/REC-SVG-20010904/DTD/svg10.dtd">
<svg version="1.0" xmlns="http://www.w3.org/2000/svg"
 width="900.000000pt" height="1280.000000pt" viewBox="0 0 900.000000 1280.000000"
 preserveAspectRatio="xMidYMid meet">
<g transform="translate(0.000000,1280.000000) scale(0.100000,-0.100000)"
fill="#000000" stroke="none">
<path d="M4200 12779 c-346 -33 -617 -88 -905 -184 -426 -142 -817 -354 -1175
-639 -159 -127 -457 -425 -583 -582 -380 -477 -636 -1024 -757 -1613 -76 -375
-80 -451 -80 -1701 0 -824 -3 -1079 -12 -1088 -9 -9 -97 -12 -333 -12 -299 0
-323 -1 -338 -18 -16 -17 -17 -272 -17 -3459 l0 -3440 23 -21 23 -22 4455 0
4456 0 21 23 22 23 0 3441 c0 3320 -1 3440 -18 3456 -17 15 -55 17 -338 17
-236 0 -323 3 -332 12 -9 9 -12 264 -12 1088 0 1250 -4 1326 -80 1701 -121
589 -377 1136 -757 1613 -126 157 -424 455 -583 582 -510 406 -1093 668 -1731
778 -171 30 -553 66 -671 65 -46 -1 -171 -10 -278 -20z m704 -1059 c283 -43
551 -127 811 -255 182 -89 265 -139 415 -248 594 -435 980 -1074 1102 -1823
22 -137 22 -154 25 -1278 3 -924 1 -1141 -9 -1147 -17 -11 -5479 -11 -5496 0
-10 6 -12 223 -9 1147 3 1124 3 1141 25 1278 122 749 506 1386 1102 1822 149
110 232 160 415 249 308 152 625 241 972 275 146 14 490 4 647 -20z"/>
</g>
</svg>
